# xmcd
#
# Track frame offsets:
#	150
#	9208
#	24773
#	42903
#	54160
#	66568
#	79880
#	89188
#	102460
#	120530
#	129088
#	140563
#	152770
#	163660
#	174968
#	189808
#	201760
#	214415
#	228738
#	243015
#
# Disc length: 3434 seconds
# Revision: 10
# Processed by: cddbd v1.5.2PL0 Copyright (c) Steve Scherf et al.
# Submitted via: dBpowerAMP V12.0
#
DISCID=070d6814
DTITLE=Nat King Cole - Trio Days
DYEAR=1992
DGENRE=Blues
TTITLE0=It's Only a Paper Moon
TTITLE1=Don't Cry, Cry Baby
TTITLE2=Cole's Bop Blues
TTITLE3=Frim Fram Sauce
TTITLE4=If You Can't Smile and Say Yes
TTITLE5=On the Sunny Side of the Street
TTITLE6=Miss Thing
TTITLE7=Sweet Lorraine
TTITLE8=Body and Soul
TTITLE9=Yes Sir That's My Baby
TTITLE10=Honeysuckle Rose
TTITLE11=Gone With the Draft
TTITLE12=Babs
TTITLE13=Scotchin' With the Soda
TTITLE14=This Will Make You Laugh
TTITLE15=Stop! the Red Light's on
TTITLE16=I Like to Riff
TTITLE17=Call the Police
TTITLE18=Are You for It?
TTITLE19=That Ain't Right
EXTD=
EXTT0=
EXTT1=
EXTT2=
EXTT3=
EXTT4=
EXTT5=
EXTT6=
EXTT7=
EXTT8=
EXTT9=
EXTT10=
EXTT11=
EXTT12=
EXTT13=
EXTT14=
EXTT15=
EXTT16=
EXTT17=
EXTT18=
EXTT19=
PLAYORDER=
